# xmcd
#
# Track frame offsets: 
#        182
#        9875
#        19922
#        34635
#        46587
#        56707
#        67302
#        80895
#        91170
#        102735
#        113255
#        123017
#        133485
#        144555
#        157487
#        165955
#        176220
#        187450
#        197625
#        206292
#        217482
#        227190
#        239667
#        250282
#        260867
#        270527
#
# Disc length: 3760 seconds
#
# Revision: 5
# Processed by: cddbd v1.5.2PL0 Copyright (c) Steve Scherf et al.
# Submitted via: ExactAudioCopy v1.0b1
#
DISCID=910eae1a,970eae1a
DTITLE=Snooks Eaglin - The Complete Imperial Recordings
DYEAR=1995
DGENRE=Blues
TTITLE0=Yours Truly (stereo)
TTITLE1=Nobody Knows (The Trouble I've Seen) (mono)
TTITLE2=That Certain Door (stereo)
TTITLE3=By The Water (mono)
TTITLE4=If I Could (stereo)
TTITLE5=Guess Who (stereo)
TTITLE6=See See Rider (mono)
TTITLE7=(Mama) Talk To Your Daughter (stereo)
TTITLE8=I've Been Walkin' (stereo)
TTITLE9=My Head Is Spinnin' (mono)
TTITLE10=Would You (mono)
TTITLE11=Travelin' Mood (mono)
TTITLE12=Goin' To The River (mono)
TTITLE13=I'm Slippin' In (mono)
TTITLE14=Nothing Sweet As You (mono)
TTITLE15=Don't Slam That Door (mono)
TTITLE16=People Are Talkin' (mono)
TTITLE17=Long Gone (mono)
TTITLE18=Willy Lee (mono)
TTITLE19=Reality (mono)
TTITLE20=If I Loved You Baby (mono)
TTITLE21=You Call Everybody Sweetheart But Me (mono)
TTITLE22=Little Eva (stereo)
TTITLE23=Cover Girl (stereo)
TTITLE24=Is It True (stereo)
TTITLE25=Down Yonder (We Go Balling) (stereo)
EXTD=YEAR: 1963
EXTT0=
EXTT1=
EXTT2=
EXTT3=
EXTT4=
EXTT5=
EXTT6=
EXTT7=
EXTT8=
EXTT9=
EXTT10=
EXTT11=
EXTT12=
EXTT13=
EXTT14=
EXTT15=
EXTT16=
EXTT17=
EXTT18=
EXTT19=
EXTT20=
EXTT21=
EXTT22=
EXTT23=
EXTT24=
EXTT25=
PLAYORDER=
